<svg width="336" height="48" viewBox="0 0 336 48" fill="none" xmlns="http://www.w3.org/2000/svg">
<rect width="336" height="48" rx="10" fill="#2C96E1"/>
<path d="M152.508 29H148.55V19.1357H152.487C154.237 19.1357 155.386 20.1064 155.386 21.5967C155.386 22.6426 154.613 23.5791 153.629 23.7432V23.7979C154.969 23.9482 155.871 24.8984 155.871 26.2109C155.871 27.9473 154.606 29 152.508 29ZM150.081 20.3867V23.333H151.797C153.123 23.333 153.854 22.7861 153.854 21.8086C153.854 20.8926 153.226 20.3867 152.118 20.3867H150.081ZM150.081 27.749H152.193C153.574 27.749 154.306 27.1816 154.306 26.1152C154.306 25.0488 153.554 24.502 152.104 24.502H150.081V27.749ZM160.739 29.1367C158.682 29.1367 157.328 27.7217 157.328 25.4043C157.328 23.0938 158.688 21.6787 160.739 21.6787C162.79 21.6787 164.15 23.0938 164.15 25.4043C164.15 27.7217 162.797 29.1367 160.739 29.1367ZM160.739 27.9199C161.901 27.9199 162.646 27.0039 162.646 25.4043C162.646 23.8115 161.895 22.8955 160.739 22.8955C159.584 22.8955 158.832 23.8115 158.832 25.4043C158.832 27.0039 159.584 27.9199 160.739 27.9199ZM167.378 29H165.922V21.8086H167.378V26.8467H167.433L170.755 21.8086H172.211V29H170.755V23.9482H170.7L167.378 29ZM166.899 18.6504H167.897C167.904 19.4229 168.396 20.0107 169.169 20.0107C169.948 20.0107 170.44 19.4229 170.447 18.6504H171.445C171.445 19.9424 170.529 20.8174 169.169 20.8174C167.815 20.8174 166.899 19.9424 166.899 18.6504ZM179.766 21.8086V22.9775H177.51V29H176.04V22.9775H173.784V21.8086H179.766ZM182.802 29H181.346V21.8086H182.802V26.8467H182.856L186.179 21.8086H187.635V29H186.179V23.9482H186.124L182.802 29Z" fill="white"/>
</svg>
