<svg width="336" height="48" viewBox="0 0 336 48" fill="none" xmlns="http://www.w3.org/2000/svg">
<rect width="336" height="48" rx="10" fill="#2C96E1"/>
<path d="M104.076 24.5977V23.3193H105.402C106.53 23.3193 107.31 22.6562 107.31 21.7061C107.31 20.7627 106.605 20.1748 105.471 20.1748C104.315 20.1748 103.57 20.7764 103.481 21.7539H102.032C102.135 19.9902 103.468 18.8965 105.519 18.8965C107.46 18.8965 108.82 19.9902 108.82 21.5488C108.82 22.6494 108.075 23.5654 106.981 23.8252V23.8799C108.301 24.0439 109.121 24.9805 109.121 26.3203C109.121 27.9814 107.556 29.2393 105.491 29.2393C103.345 29.2393 101.868 28.084 101.779 26.3477H103.256C103.345 27.3184 104.22 27.9404 105.484 27.9404C106.715 27.9404 107.549 27.25 107.549 26.2451C107.549 25.2129 106.763 24.5977 105.443 24.5977H104.076ZM114.673 21.6924C116.498 21.6924 117.701 23.1279 117.701 25.4043C117.701 27.6807 116.505 29.123 114.7 29.123C113.668 29.123 112.848 28.6172 112.438 27.8174H112.403V31.3789H110.927V21.8086H112.355V23.0459H112.383C112.807 22.2188 113.634 21.6924 114.673 21.6924ZM114.283 27.8721C115.452 27.8721 116.184 26.915 116.184 25.4043C116.184 23.9004 115.452 22.9365 114.283 22.9365C113.155 22.9365 112.396 23.9209 112.396 25.4043C112.396 26.9014 113.148 27.8721 114.283 27.8721ZM122.487 22.8682C121.455 22.8682 120.73 23.6543 120.655 24.7412H124.251C124.217 23.6406 123.52 22.8682 122.487 22.8682ZM124.244 26.8877H125.646C125.44 28.2002 124.196 29.1367 122.549 29.1367C120.437 29.1367 119.158 27.708 119.158 25.4385C119.158 23.1826 120.457 21.6787 122.487 21.6787C124.483 21.6787 125.728 23.0869 125.728 25.2676V25.7734H120.648V25.8623C120.648 27.1133 121.4 27.9404 122.583 27.9404C123.424 27.9404 124.046 27.5166 124.244 26.8877ZM132.257 22.9775H128.962V29H127.492V21.8086H132.257V22.9775ZM135.45 29H133.994V21.8086H135.45V26.8467H135.505L138.827 21.8086H140.283V29H138.827V23.9482H138.772L135.45 29ZM148.508 24.1123H147.086C146.895 23.4492 146.348 22.9092 145.432 22.9092C144.29 22.9092 143.545 23.8867 143.545 25.4043C143.545 26.9629 144.297 27.8994 145.445 27.8994C146.32 27.8994 146.895 27.4619 147.1 26.71H148.521C148.31 28.1523 147.127 29.1367 145.432 29.1367C143.374 29.1367 142.048 27.708 142.048 25.4043C142.048 23.1484 143.374 21.6787 145.418 21.6787C147.195 21.6787 148.303 22.7861 148.508 24.1123ZM155.529 21.8086V22.9775H153.273V29H151.804V22.9775H149.548V21.8086H155.529ZM160.862 21.6924C162.688 21.6924 163.891 23.1279 163.891 25.4043C163.891 27.6807 162.694 29.123 160.89 29.123C159.857 29.123 159.037 28.6172 158.627 27.8174H158.593V31.3789H157.116V21.8086H158.545V23.0459H158.572C158.996 22.2188 159.823 21.6924 160.862 21.6924ZM160.473 27.8721C161.642 27.8721 162.373 26.915 162.373 25.4043C162.373 23.9004 161.642 22.9365 160.473 22.9365C159.345 22.9365 158.586 23.9209 158.586 25.4043C158.586 26.9014 159.338 27.8721 160.473 27.8721ZM167.118 29H165.662V21.8086H167.118V26.8467H167.173L170.495 21.8086H171.951V29H170.495V23.9482H170.44L167.118 29ZM177.79 21.6924C179.615 21.6924 180.818 23.1279 180.818 25.4043C180.818 27.6807 179.622 29.123 177.817 29.123C176.785 29.123 175.965 28.6172 175.555 27.8174H175.521V31.3789H174.044V21.8086H175.473V23.0459H175.5C175.924 22.2188 176.751 21.6924 177.79 21.6924ZM177.4 27.8721C178.569 27.8721 179.301 26.915 179.301 25.4043C179.301 23.9004 178.569 22.9365 177.4 22.9365C176.272 22.9365 175.514 23.9209 175.514 25.4043C175.514 26.9014 176.266 27.8721 177.4 27.8721ZM185.687 29.1367C183.629 29.1367 182.275 27.7217 182.275 25.4043C182.275 23.0938 183.636 21.6787 185.687 21.6787C187.737 21.6787 189.098 23.0938 189.098 25.4043C189.098 27.7217 187.744 29.1367 185.687 29.1367ZM185.687 27.9199C186.849 27.9199 187.594 27.0039 187.594 25.4043C187.594 23.8115 186.842 22.8955 185.687 22.8955C184.531 22.8955 183.779 23.8115 183.779 25.4043C183.779 27.0039 184.531 27.9199 185.687 27.9199ZM193.836 22.8818H192.325V24.7686H193.692C194.526 24.7686 194.943 24.4473 194.943 23.8115C194.943 23.2168 194.554 22.8818 193.836 22.8818ZM193.788 25.8008H192.325V27.9268H193.952C194.786 27.9268 195.237 27.5576 195.237 26.8672C195.237 26.1562 194.759 25.8008 193.788 25.8008ZM190.869 29V21.8086H194.137C195.538 21.8086 196.386 22.5059 196.386 23.6406C196.386 24.3857 195.853 25.0625 195.162 25.1924V25.2471C196.092 25.3701 196.707 26.0264 196.707 26.9287C196.707 28.1934 195.736 29 194.178 29H190.869ZM201.042 27.9541C202.074 27.9541 202.881 27.2432 202.881 26.3066V25.7393L201.11 25.8486C200.229 25.9102 199.729 26.2998 199.729 26.915C199.729 27.5439 200.249 27.9541 201.042 27.9541ZM200.632 29.123C199.224 29.123 198.239 28.248 198.239 26.9561C198.239 25.6982 199.203 24.9258 200.912 24.8301L202.881 24.7139V24.1602C202.881 23.3604 202.341 22.8818 201.438 22.8818C200.584 22.8818 200.051 23.292 199.921 23.9346H198.526C198.608 22.6357 199.716 21.6787 201.493 21.6787C203.236 21.6787 204.351 22.6016 204.351 24.0439V29H202.936V27.8174H202.901C202.484 28.6172 201.575 29.123 200.632 29.123ZM211.762 21.8086V22.9775H209.506V29H208.036V22.9775H205.78V21.8086H211.762ZM216.056 25.1855H214.812V27.8379H216.056C216.903 27.8379 217.45 27.3047 217.45 26.5117C217.45 25.7119 216.896 25.1855 216.056 25.1855ZM213.342 29V21.8086H214.812V24.0303H216.186C217.847 24.0303 218.92 24.9941 218.92 26.5117C218.92 28.0361 217.847 29 216.186 29H213.342ZM226.789 24.1123H225.367C225.176 23.4492 224.629 22.9092 223.713 22.9092C222.571 22.9092 221.826 23.8867 221.826 25.4043C221.826 26.9629 222.578 27.8994 223.727 27.8994C224.602 27.8994 225.176 27.4619 225.381 26.71H226.803C226.591 28.1523 225.408 29.1367 223.713 29.1367C221.655 29.1367 220.329 27.708 220.329 25.4043C220.329 23.1484 221.655 21.6787 223.699 21.6787C225.477 21.6787 226.584 22.7861 226.789 24.1123ZM231.179 25.3975H232.484V22.9707H231.179C230.338 22.9707 229.798 23.4492 229.798 24.2285C229.798 24.9121 230.345 25.3975 231.179 25.3975ZM232.484 29V26.5322H231.391L229.647 29H227.979L229.941 26.2793C228.943 25.9854 228.328 25.2402 228.328 24.2354C228.328 22.7383 229.422 21.8086 231.104 21.8086H233.934V29H232.484Z" fill="white"/>
</svg>
