<svg width="336" height="48" viewBox="0 0 336 48" fill="none" xmlns="http://www.w3.org/2000/svg">
<rect x="0.75" y="0.75" width="334.5" height="46.5" rx="9.25" stroke="#2C96E1" stroke-width="1.5"/>
<path d="M125.517 19.1357H129.215C131.129 19.1357 132.462 20.4551 132.462 22.376C132.462 24.3037 131.102 25.6299 129.167 25.6299H127.048V29H125.517V19.1357ZM127.048 20.4277V24.3447H128.805C130.138 24.3447 130.896 23.627 130.896 22.3828C130.896 21.1387 130.138 20.4277 128.812 20.4277H127.048ZM137.05 22.8682C136.018 22.8682 135.293 23.6543 135.218 24.7412H138.813C138.779 23.6406 138.082 22.8682 137.05 22.8682ZM138.807 26.8877H140.208C140.003 28.2002 138.759 29.1367 137.111 29.1367C134.999 29.1367 133.721 27.708 133.721 25.4385C133.721 23.1826 135.02 21.6787 137.05 21.6787C139.046 21.6787 140.29 23.0869 140.29 25.2676V25.7734H135.211V25.8623C135.211 27.1133 135.963 27.9404 137.146 27.9404C137.986 27.9404 138.608 27.5166 138.807 26.8877ZM146.819 22.9775H143.524V29H142.055V21.8086H146.819V22.9775ZM150.013 29H148.557V21.8086H150.013V26.8467H150.067L153.39 21.8086H154.846V29H153.39V23.9482H153.335L150.013 29ZM163.07 24.1123H161.648C161.457 23.4492 160.91 22.9092 159.994 22.9092C158.853 22.9092 158.107 23.8867 158.107 25.4043C158.107 26.9629 158.859 27.8994 160.008 27.8994C160.883 27.8994 161.457 27.4619 161.662 26.71H163.084C162.872 28.1523 161.689 29.1367 159.994 29.1367C157.937 29.1367 156.61 27.708 156.61 25.4043C156.61 23.1484 157.937 21.6787 159.98 21.6787C161.758 21.6787 162.865 22.7861 163.07 24.1123ZM170.092 21.8086V22.9775H167.836V29H166.366V22.9775H164.11V21.8086H170.092ZM175.425 21.6924C177.25 21.6924 178.453 23.1279 178.453 25.4043C178.453 27.6807 177.257 29.123 175.452 29.123C174.42 29.123 173.6 28.6172 173.189 27.8174H173.155V31.3789H171.679V21.8086H173.107V23.0459H173.135C173.559 22.2188 174.386 21.6924 175.425 21.6924ZM175.035 27.8721C176.204 27.8721 176.936 26.915 176.936 25.4043C176.936 23.9004 176.204 22.9365 175.035 22.9365C173.907 22.9365 173.148 23.9209 173.148 25.4043C173.148 26.9014 173.9 27.8721 175.035 27.8721ZM182.747 27.9541C183.779 27.9541 184.586 27.2432 184.586 26.3066V25.7393L182.815 25.8486C181.934 25.9102 181.435 26.2998 181.435 26.915C181.435 27.5439 181.954 27.9541 182.747 27.9541ZM182.337 29.123C180.929 29.123 179.944 28.248 179.944 26.9561C179.944 25.6982 180.908 24.9258 182.617 24.8301L184.586 24.7139V24.1602C184.586 23.3604 184.046 22.8818 183.144 22.8818C182.289 22.8818 181.756 23.292 181.626 23.9346H180.231C180.313 22.6357 181.421 21.6787 183.198 21.6787C184.941 21.6787 186.056 22.6016 186.056 24.0439V29H184.641V27.8174H184.606C184.189 28.6172 183.28 29.123 182.337 29.123ZM195.306 30.8867H193.945V29H188.107V21.8086H189.577V27.8311H192.715V21.8086H194.185V27.8311H195.306V30.8867ZM198.267 29H196.811V21.8086H198.267V26.8467H198.321L201.644 21.8086H203.1V29H201.644V23.9482H201.589L198.267 29ZM207.913 25.3975H209.219V22.9707H207.913C207.072 22.9707 206.532 23.4492 206.532 24.2285C206.532 24.9121 207.079 25.3975 207.913 25.3975ZM209.219 29V26.5322H208.125L206.382 29H204.714L206.676 26.2793C205.678 25.9854 205.062 25.2402 205.062 24.2354C205.062 22.7383 206.156 21.8086 207.838 21.8086H210.668V29H209.219Z" fill="white"/>
</svg>
