<svg width="384" height="653" viewBox="0 0 384 653" fill="none" xmlns="http://www.w3.org/2000/svg">
<g filter="url(#filter0_d_2_155)">
<path d="M13.6022 433.475C23.8719 429.038 35.6534 427.67 48.381 431.058C10.8168 436.939 -9.41452 473.536 -10.9383 522.992C-22.2695 516.828 -26.9081 504.964 -26.3079 491.691C-22.5753 491.985 -17.4789 491.986 -11.7234 491.072C-16.1578 489.408 -21.1781 485.44 -24.9843 481.921C-22.823 472.176 -18.188 462.243 -11.6007 453.661C-8.35271 455.608 -3.64956 458.04 2.01351 460.077C-1.29823 456.972 -4.41597 452.062 -6.67417 447.89C-1.77341 442.731 3.91542 438.309 10.2445 435.06C11.8866 436.849 13.7718 438.743 15.8893 440.635C14.9217 438.546 14.174 436.046 13.6022 433.475Z" fill="#2F8BCB"/>
<path d="M48.3789 431.06C41.4553 438.441 36.4727 445.37 32.7511 451.889C26.9449 451.348 22.0086 452.107 20.0336 452.638C21.0712 452.784 24.3835 453.955 29.8448 457.394C25.9599 465.391 23.8009 472.743 21.9678 479.536C17.9314 479.14 14.6374 479.372 13.091 479.635C13.9953 479.851 16.6079 481.037 20.7573 484.053C18.2375 493.441 15.7409 501.718 9.13972 509.137C5.43975 507.535 2.25399 506.751 0.708038 506.527C1.44833 506.977 3.34233 508.685 6.04375 512.269C1.89349 516.06 -3.56485 519.624 -10.9403 522.994C-18.0276 491.301 2.57532 435.3 48.3789 431.06Z" fill="#1D567D"/>
</g>
<g filter="url(#filter1_d_2_155)">
<path d="M66.559 462.619C85.5263 460.716 105.364 464.583 124.283 476.655C60.2447 466.812 8.49418 515.8 -19.5152 595.327C-34.7327 579.468 -36.1435 557.808 -28.3176 536.565C-22.4076 538.969 -14.1297 541.598 -4.30981 543.085C-10.6515 538.093 -16.7588 529.061 -21.1228 521.381C-12.582 506.672 0.0737572 492.929 15.2028 482.393C19.4719 487.232 25.8566 493.609 34.003 499.841C30.2276 493.091 27.6964 483.508 26.1832 475.568C36.8057 469.718 48.3266 465.472 60.2824 463.462C62.0258 467.216 64.1108 471.266 66.5738 475.433C66.0804 471.541 66.1594 467.093 66.559 462.619Z" fill="#2F8BCB"/>
<path d="M124.279 476.656C109.224 485.068 97.5544 493.75 88.1447 502.415C78.9946 498.539 70.5862 497.222 67.1048 497.065C68.7142 497.839 73.4934 501.446 80.5867 509.851C70.1474 520.832 62.8442 531.658 56.3592 541.745C50.0092 539.017 44.5408 537.693 41.8936 537.321C43.2508 538.139 46.8806 541.414 52.0609 548.455C43.1219 562.398 34.7936 574.55 20.2423 583.192C15.0613 578.681 10.2938 575.762 7.89882 574.601C8.86862 575.714 11.0627 579.465 13.5991 586.68C4.90185 590.695 -5.80192 593.663 -19.5193 595.328C-14.6651 540.203 47.7075 459.895 124.279 476.656Z" fill="#1D567D"/>
</g>
<path d="M90.8987 50.3031C100.68 50.3031 109.665 53.7069 116.739 59.391C114.902 59.1411 113.027 59.0102 111.121 59.0102C88.3185 59.0102 69.8332 77.4942 69.8332 100.295C69.8333 113.314 75.8617 124.924 85.2776 132.491C65.134 129.749 49.6106 112.483 49.6106 91.5883C49.6106 68.7872 68.0959 50.3031 90.8987 50.3031Z" fill="white"/>
<path d="M22.7395 393.017L25.4937 399.762L32.2395 402.516L25.4937 405.27L22.7395 412.015L19.9853 405.27L13.2395 402.516L19.9853 399.762L22.7395 393.017Z" fill="white"/>
<path d="M109.239 364.019L111.994 370.764L118.739 373.518L111.994 376.272L109.239 383.017L106.485 376.272L99.7395 373.518L106.485 370.764L109.239 364.019Z" fill="white"/>
<path d="M343.24 374.018L345.994 380.763L352.74 383.517L345.994 386.271L343.24 393.017L340.485 386.271L333.74 383.517L340.485 380.763L343.24 374.018Z" fill="white"/>
<path d="M51.2395 223.029L53.9937 229.774L60.7395 232.528L53.9937 235.282L51.2395 242.028L48.4853 235.282L41.7395 232.528L48.4853 229.774L51.2395 223.029Z" fill="white"/>
<path d="M331.175 166.627L333.929 173.373L340.675 176.127L333.929 178.881L331.175 185.626L328.42 178.881L321.675 176.127L328.42 173.373L331.175 166.627Z" fill="white"/>
<path d="M218.232 91.3973L220.986 98.1426L227.732 100.897L220.986 103.651L218.232 110.396L215.477 103.651L208.732 100.897L215.477 98.1426L218.232 91.3973Z" fill="white"/>
<path d="M218.239 290.024L220.994 296.769L227.739 299.523L220.994 302.277L218.239 309.023L215.485 302.277L208.739 299.523L215.485 296.769L218.239 290.024Z" fill="white"/>
<path d="M352.74 0L355.494 6.74533L362.24 9.49932L355.494 12.2533L352.74 18.9986L349.985 12.2533L343.24 9.49932L349.985 6.74533L352.74 0Z" fill="white"/>
<path d="M306.732 396.017H183.732L129.732 479.011H252.732L306.732 396.017Z" fill="#11373E"/>
<mask id="mask0_2_155" style="mask-type:alpha" maskUnits="userSpaceOnUse" x="245" y="391" width="139" height="111">
<path fill-rule="evenodd" clip-rule="evenodd" d="M314.724 391.017L383.716 494.498L373.732 501.154L314.724 412.649L255.716 501.154L245.732 494.498L314.724 391.017Z" fill="white"/>
</mask>
<g mask="url(#mask0_2_155)">
<rect x="177.724" y="377.835" width="286" height="108.992" fill="#7591A6"/>
</g>
<rect x="146" y="450" width="90" height="121" fill="#2C96E2"/>
<rect x="235.732" y="464.012" width="122" height="106.992" fill="url(#paint0_linear_2_155)"/>
<path d="M190.732 396.017L235.732 464.012H145.732L190.732 396.017Z" fill="#2C96E2"/>
<path d="M183.732 396.017H313.732L367.732 479.011H237.732L183.732 396.017Z" fill="url(#paint1_linear_2_155)"/>
<mask id="mask1_2_155" style="mask-type:alpha" maskUnits="userSpaceOnUse" x="116" y="391" width="139" height="111">
<path fill-rule="evenodd" clip-rule="evenodd" d="M185.732 391.2L254.724 494.681L244.74 501.337L185.732 412.832L126.724 501.337L116.74 494.681L185.732 391.2Z" fill="white"/>
</mask>
<g mask="url(#mask1_2_155)">
<path d="M48.7317 417.018C48.7317 395.479 66.1926 378.018 87.7317 378.018H334.732V436.01C334.732 464.177 311.898 487.01 283.732 487.01H100.732C72.0129 487.01 48.7317 463.729 48.7317 435.01V417.018Z" fill="white"/>
</g>
<rect x="251.732" y="388.017" width="18" height="23.9983" fill="#082438"/>
<ellipse cx="188.732" cy="479.011" rx="16" ry="15.9988" fill="#0F2637"/>
<path d="M188.74 464.012C197.024 464.012 203.74 470.727 203.74 479.011C203.739 487.294 197.024 494.01 188.74 494.01C180.455 494.01 173.74 487.294 173.74 479.011C173.74 470.727 180.455 464.012 188.74 464.012Z" stroke="white" stroke-width="2"/>
<path d="M174.24 479.011H203.24" stroke="white" stroke-width="2"/>
<path d="M188.74 464.012L188.74 493.01" stroke="white" stroke-width="2"/>
<rect x="174.732" y="525.007" width="28" height="45.9967" fill="#0F2637"/>
<rect x="258.732" y="509.009" width="28" height="34.9975" fill="#0F2637"/>
<rect x="306.732" y="509.009" width="28" height="34.9975" fill="#0F2637"/>
<rect x="175.74" y="526.007" width="26" height="43.9967" stroke="white" stroke-width="2"/>
<rect x="259.732" y="508.009" width="26" height="34.9973" stroke="#526573" stroke-width="2"/>
<rect x="307.732" y="508.009" width="26" height="34.9973" stroke="#526573" stroke-width="2"/>
<path d="M188.74 527.007L188.74 570.004" stroke="white" stroke-width="2"/>
<path d="M175.74 539.006H201.74" stroke="white" stroke-width="2"/>
<path d="M260.732 521.008H286.732" stroke="#526573" stroke-width="2"/>
<path d="M307.732 521.008H333.732" stroke="#526573" stroke-width="2"/>
<path d="M272.732 522.008L272.732 542.006" stroke="#526573" stroke-width="2"/>
<path d="M320.74 522.008L320.74 542.006" stroke="#526573" stroke-width="2"/>
<path d="M174.74 552.005H200.74" stroke="white" stroke-width="2"/>
<path d="M228.239 201.031C232.739 277.525 247.739 289.024 256.239 376.018C256.239 374.685 261.739 378.678 261.739 377.018C261.739 360.207 258.739 321.778 258.739 297.024C258.739 263.026 258.739 234.028 256.239 215.53C253.802 197.495 258.739 128.536 258.739 113.537C258.739 101.538 234.073 108.537 221.739 113.537C222.406 117.203 224.639 139.835 228.239 201.031Z" fill="url(#paint2_radial_2_155)"/>
<rect x="237.739" y="476.011" width="130" height="11" fill="url(#paint3_linear_2_155)"/>
<defs>
<filter id="filter0_d_2_155" x="-79.4592" y="380.063" width="180.94" height="200.031" filterUnits="userSpaceOnUse" color-interpolation-filters="sRGB">
<feFlood flood-opacity="0" result="BackgroundImageFix"/>
<feColorMatrix in="SourceAlpha" type="matrix" values="0 0 0 0 0 0 0 0 0 0 0 0 0 0 0 0 0 0 127 0" result="hardAlpha"/>
<feOffset dy="4"/>
<feGaussianBlur stdDeviation="26.55"/>
<feComposite in2="hardAlpha" operator="out"/>
<feColorMatrix type="matrix" values="0 0 0 0 0.0588235 0 0 0 0 0.14902 0 0 0 0 0.215686 0 0 0 0.43 0"/>
<feBlend mode="normal" in2="BackgroundImageFix" result="effect1_dropShadow_2_155"/>
<feBlend mode="normal" in="SourceGraphic" in2="effect1_dropShadow_2_155" result="shape"/>
</filter>
<filter id="filter1_d_2_155" x="-86.0885" y="413.059" width="263.471" height="239.37" filterUnits="userSpaceOnUse" color-interpolation-filters="sRGB">
<feFlood flood-opacity="0" result="BackgroundImageFix"/>
<feColorMatrix in="SourceAlpha" type="matrix" values="0 0 0 0 0 0 0 0 0 0 0 0 0 0 0 0 0 0 127 0" result="hardAlpha"/>
<feOffset dy="4"/>
<feGaussianBlur stdDeviation="26.55"/>
<feComposite in2="hardAlpha" operator="out"/>
<feColorMatrix type="matrix" values="0 0 0 0 0.0588235 0 0 0 0 0.14902 0 0 0 0 0.215686 0 0 0 0.43 0"/>
<feBlend mode="normal" in2="BackgroundImageFix" result="effect1_dropShadow_2_155"/>
<feBlend mode="normal" in="SourceGraphic" in2="effect1_dropShadow_2_155" result="shape"/>
</filter>
<linearGradient id="paint0_linear_2_155" x1="232.239" y1="497.509" x2="368.235" y2="576.012" gradientUnits="userSpaceOnUse">
<stop stop-color="#225E89"/>
<stop offset="1" stop-color="#091823"/>
</linearGradient>
<linearGradient id="paint1_linear_2_155" x1="178.739" y1="396.017" x2="367.734" y2="488.521" gradientUnits="userSpaceOnUse">
<stop stop-color="#17374E"/>
<stop offset="1" stop-color="#021828"/>
</linearGradient>
<radialGradient id="paint2_radial_2_155" cx="0" cy="0" r="1" gradientUnits="userSpaceOnUse" gradientTransform="translate(241.739 382.018) rotate(104.037) scale(214.387 281.548)">
<stop stop-color="white"/>
<stop offset="1" stop-color="white" stop-opacity="0"/>
</radialGradient>
<linearGradient id="paint3_linear_2_155" x1="237.739" y1="481.511" x2="367.739" y2="481.511" gradientUnits="userSpaceOnUse">
<stop stop-color="white"/>
<stop offset="1" stop-color="#7591A5"/>
</linearGradient>
</defs>
</svg>
