<svg width="267" height="465" viewBox="0 0 267 465" fill="none" xmlns="http://www.w3.org/2000/svg">
<path d="M189.992 289.126H66.9922L12.9922 372.126H135.992L189.992 289.126Z" fill="#11373E"/>
<mask id="mask0_148_313" style="mask-type:alpha" maskUnits="userSpaceOnUse" x="128" y="284" width="139" height="111">
<path fill-rule="evenodd" clip-rule="evenodd" d="M197.984 284.126L266.977 387.614L256.992 394.271L197.984 305.759L138.977 394.271L128.992 387.614L197.984 284.126Z" fill="white"/>
</mask>
<g mask="url(#mask0_148_313)">
<rect x="60.9844" y="270.943" width="286" height="109" fill="#7591A6"/>
</g>
<rect x="28.9922" y="357.126" width="90" height="107" fill="#2C96E2"/>
<rect x="118.992" y="357.126" width="122" height="107" fill="url(#paint0_linear_148_313)"/>
<path d="M73.9922 289.126L118.992 357.126H28.9922L73.9922 289.126Z" fill="#2C96E2"/>
<path d="M66.9922 289.126H196.992L250.992 372.126H120.992L66.9922 289.126Z" fill="url(#paint1_linear_148_313)"/>
<mask id="mask1_148_313" style="mask-type:alpha" maskUnits="userSpaceOnUse" x="0" y="284" width="138" height="111">
<path fill-rule="evenodd" clip-rule="evenodd" d="M68.9923 284.309L137.985 387.798L128 394.454L68.9923 305.942L9.9846 394.454L0 387.798L68.9923 284.309Z" fill="white"/>
</mask>
<g mask="url(#mask1_148_313)">
<path d="M-68.0078 310.126C-68.0078 288.587 -50.5469 271.126 -29.0078 271.126H217.992V329.126C217.992 357.292 195.159 380.126 166.992 380.126H-16.0078C-44.7266 380.126 -68.0078 356.845 -68.0078 328.126V310.126Z" fill="white"/>
</g>
<rect x="134.992" y="281.126" width="18" height="24" fill="#082438"/>
<circle cx="71.9922" cy="372.126" r="16" fill="#0F2637"/>
<circle cx="72" cy="372.126" r="15" stroke="white" stroke-width="2"/>
<path d="M57.5 372.126H86.5" stroke="white" stroke-width="2"/>
<path d="M72 357.126L72 386.126" stroke="white" stroke-width="2"/>
<rect x="57.9922" y="418.126" width="28" height="46" fill="#0F2637"/>
<rect x="141.992" y="402.126" width="28" height="35" fill="#0F2637"/>
<rect x="189.992" y="402.126" width="28" height="35" fill="#0F2637"/>
<rect x="59" y="419.126" width="26" height="44" stroke="white" stroke-width="2"/>
<rect x="142.992" y="401.126" width="26" height="35" stroke="#526573" stroke-width="2"/>
<rect x="190.992" y="401.126" width="26" height="35" stroke="#526573" stroke-width="2"/>
<path d="M72 420.126L72 463.126" stroke="white" stroke-width="2"/>
<path d="M59 432.126H85" stroke="white" stroke-width="2"/>
<path d="M143.992 414.126H169.992" stroke="#526573" stroke-width="2"/>
<path d="M190.992 414.126H216.992" stroke="#526573" stroke-width="2"/>
<path d="M155.992 415.126L155.992 435.126" stroke="#526573" stroke-width="2"/>
<path d="M202.992 415.126L202.992 435.126" stroke="#526573" stroke-width="2"/>
<path d="M58 445.126H84" stroke="white" stroke-width="2"/>
<path d="M111.5 94.1258C116 170.626 131 182.126 139.5 269.126C139.5 267.793 145 271.786 145 270.126C145 253.314 142 214.882 142 190.126C142 156.126 142 127.126 139.5 108.626C137.063 90.5895 142 21.6258 142 6.62582C142 -5.37418 117.333 1.62582 105 6.62582C105.667 10.2925 107.9 32.9258 111.5 94.1258Z" fill="url(#paint2_radial_148_313)"/>
<defs>
<linearGradient id="paint0_linear_148_313" x1="115.5" y1="390.626" x2="251.5" y2="469.126" gradientUnits="userSpaceOnUse">
<stop stop-color="#225E89"/>
<stop offset="1" stop-color="#091823"/>
</linearGradient>
<linearGradient id="paint1_linear_148_313" x1="62" y1="289.126" x2="251" y2="381.626" gradientUnits="userSpaceOnUse">
<stop stop-color="#17374E"/>
<stop offset="1" stop-color="#021828"/>
</linearGradient>
<radialGradient id="paint2_radial_148_313" cx="0" cy="0" r="1" gradientUnits="userSpaceOnUse" gradientTransform="translate(125 250.626) rotate(102.607) scale(238.244 312.859)">
<stop stop-color="white"/>
<stop offset="1" stop-color="#191919"/>
</radialGradient>
</defs>
</svg>
