<svg width="162" height="162" viewBox="0 0 162 162" fill="none" xmlns="http://www.w3.org/2000/svg">
<g filter="url(#filter0_i_383_394)">
<rect width="162" height="162" rx="14" fill="url(#paint0_linear_383_394)"/>
</g>
<path d="M92.7004 30.5028C100.621 34.175 105.296 40.9157 103.144 45.5587C100.991 50.2016 92.8251 50.9885 84.9049 47.3163C76.9846 43.6441 72.309 36.9033 74.4617 32.2604C76.6144 27.6175 84.7801 26.8306 92.7004 30.5028Z" fill="url(#paint1_linear_383_394)"/>
<path d="M65.3787 74.3122L83.1097 36.0697L94.9781 41.5725L77.247 79.8149L65.3787 74.3122Z" fill="url(#paint2_linear_383_394)"/>
<path d="M8.9341 85.5243C7.10898 82.532 8.05515 78.6268 11.0474 76.8016L58.4552 47.8857C61.4474 46.0606 65.3527 47.0067 67.1779 49.999L82.3243 74.8316C84.1494 77.8239 83.2033 81.7292 80.211 83.5543L32.8033 112.47C29.811 114.295 25.9057 113.349 24.0806 110.357L8.9341 85.5243Z" fill="url(#paint3_linear_383_394)"/>
<path fill-rule="evenodd" clip-rule="evenodd" d="M17.3241 54.6818C16.5297 57.9631 17.1973 63.7788 23.5681 74.2238L16.3441 78.63C9.6064 67.5836 7.50125 59.2938 9.09996 52.6906C10.7274 45.9685 15.8792 42.3646 19.7625 39.996C23.655 37.6218 29.5166 34.5207 36.5308 35.734C43.6428 36.9643 50.5886 42.3518 57.4308 53.5695L50.2068 57.9758C43.9404 47.702 38.7371 44.7031 35.0884 44.072C31.342 43.4239 27.8312 44.9862 24.1688 47.2201C20.497 49.4596 18.0898 51.5194 17.3241 54.6818Z" fill="url(#paint4_linear_383_394)"/>
<mask id="mask0_383_394" style="mask-type:alpha" maskUnits="userSpaceOnUse" x="0" y="0" width="162" height="162">
<rect width="162" height="162" rx="14" fill="url(#paint5_linear_383_394)"/>
</mask>
<g mask="url(#mask0_383_394)">
<path d="M105.969 74.8116C111.959 89.0857 107.816 104.4 96.7165 109.017C85.6164 113.634 71.7621 105.805 65.772 91.5312C59.7819 77.257 63.9244 61.9427 75.0244 57.3257C86.1244 52.7087 99.9787 60.5374 105.969 74.8116Z" fill="url(#paint6_linear_383_394)"/>
<path d="M137.647 101.972C120.294 116.374 100.688 121.433 93.8549 113.272C87.0219 105.111 95.5498 86.8213 112.902 72.4199C130.255 58.0186 149.861 52.9595 156.694 61.1202C163.527 69.2809 155 87.571 137.647 101.972Z" fill="url(#paint7_linear_383_394)"/>
<path d="M131.148 144.011C109.53 141.753 93.1791 128.789 94.6266 115.056C96.0741 101.323 114.772 92.0211 136.39 94.2795C158.007 96.538 174.358 109.502 172.911 123.235C171.463 136.968 152.765 146.27 131.148 144.011Z" fill="url(#paint8_linear_383_394)"/>
<path d="M60.867 124.477C73.9541 106.292 94.5645 98.6829 106.902 107.483C119.239 116.283 118.631 138.159 105.544 156.345C92.4566 174.53 71.8462 182.139 59.5091 173.339C47.1719 164.539 47.7799 142.663 60.867 124.477Z" fill="url(#paint9_linear_383_394)"/>
<path d="M55.109 93.1055C73.9044 90.1216 90.5124 96.264 92.2039 106.825C93.8955 117.386 80.03 128.366 61.2346 131.35C42.4392 134.334 25.8312 128.191 24.1397 117.63C22.4482 107.07 36.3136 96.0894 55.109 93.1055Z" fill="url(#paint10_linear_383_394)"/>
</g>
<ellipse cx="96.5363" cy="111.898" rx="28" ry="20.5004" transform="rotate(-30.5989 96.5363 111.898)" fill="url(#paint11_linear_383_394)"/>
<defs>
<filter id="filter0_i_383_394" x="-30" y="-25" width="192" height="187" filterUnits="userSpaceOnUse" color-interpolation-filters="sRGB">
<feFlood flood-opacity="0" result="BackgroundImageFix"/>
<feBlend mode="normal" in="SourceGraphic" in2="BackgroundImageFix" result="shape"/>
<feColorMatrix in="SourceAlpha" type="matrix" values="0 0 0 0 0 0 0 0 0 0 0 0 0 0 0 0 0 0 127 0" result="hardAlpha"/>
<feMorphology radius="18" operator="dilate" in="SourceAlpha" result="effect1_innerShadow_383_394"/>
<feOffset dx="-30" dy="-25"/>
<feGaussianBlur stdDeviation="36.35"/>
<feComposite in2="hardAlpha" operator="arithmetic" k2="-1" k3="1"/>
<feColorMatrix type="matrix" values="0 0 0 0 0.101961 0 0 0 0 0.554902 0 0 0 0 0.878431 0 0 0 1 0"/>
<feBlend mode="normal" in2="shape" result="effect1_innerShadow_383_394"/>
</filter>
<linearGradient id="paint0_linear_383_394" x1="5.5" y1="6.5" x2="191" y2="183.5" gradientUnits="userSpaceOnUse">
<stop stop-color="#3B77A1"/>
<stop offset="1" stop-color="#2C3033"/>
</linearGradient>
<linearGradient id="paint1_linear_383_394" x1="17.4205" y1="30.4394" x2="23.2593" y2="123.403" gradientUnits="userSpaceOnUse">
<stop stop-color="#80CAFF"/>
<stop offset="1" stop-color="#497797"/>
</linearGradient>
<linearGradient id="paint2_linear_383_394" x1="17.4205" y1="30.4394" x2="23.2593" y2="123.403" gradientUnits="userSpaceOnUse">
<stop stop-color="#80CAFF"/>
<stop offset="1" stop-color="#497797"/>
</linearGradient>
<linearGradient id="paint3_linear_383_394" x1="17.4205" y1="30.4394" x2="23.2593" y2="123.403" gradientUnits="userSpaceOnUse">
<stop stop-color="#80CAFF"/>
<stop offset="1" stop-color="#497797"/>
</linearGradient>
<linearGradient id="paint4_linear_383_394" x1="17.4205" y1="30.4394" x2="23.2593" y2="123.403" gradientUnits="userSpaceOnUse">
<stop stop-color="#80CAFF"/>
<stop offset="1" stop-color="#497797"/>
</linearGradient>
<linearGradient id="paint5_linear_383_394" x1="5.5" y1="6.5" x2="191" y2="183.5" gradientUnits="userSpaceOnUse">
<stop stop-color="#3B77A1"/>
<stop offset="1" stop-color="#2C3033"/>
</linearGradient>
<linearGradient id="paint6_linear_383_394" x1="53.7498" y1="56.2833" x2="110.059" y2="180.261" gradientUnits="userSpaceOnUse">
<stop stop-color="#80CAFF"/>
<stop offset="1" stop-color="#2271AA"/>
</linearGradient>
<linearGradient id="paint7_linear_383_394" x1="53.7498" y1="56.2833" x2="110.059" y2="180.261" gradientUnits="userSpaceOnUse">
<stop stop-color="#80CAFF"/>
<stop offset="1" stop-color="#2271AA"/>
</linearGradient>
<linearGradient id="paint8_linear_383_394" x1="53.7498" y1="56.2833" x2="110.059" y2="180.261" gradientUnits="userSpaceOnUse">
<stop stop-color="#80CAFF"/>
<stop offset="1" stop-color="#2271AA"/>
</linearGradient>
<linearGradient id="paint9_linear_383_394" x1="53.7498" y1="56.2833" x2="110.059" y2="180.261" gradientUnits="userSpaceOnUse">
<stop stop-color="#80CAFF"/>
<stop offset="1" stop-color="#2271AA"/>
</linearGradient>
<linearGradient id="paint10_linear_383_394" x1="53.7498" y1="56.2833" x2="110.059" y2="180.261" gradientUnits="userSpaceOnUse">
<stop stop-color="#80CAFF"/>
<stop offset="1" stop-color="#2271AA"/>
</linearGradient>
<linearGradient id="paint11_linear_383_394" x1="97.0491" y1="91.398" x2="112.59" y2="143.532" gradientUnits="userSpaceOnUse">
<stop stop-color="#77C2F7"/>
<stop offset="1" stop-color="#69BEFB"/>
</linearGradient>
</defs>
</svg>
