<svg width="162" height="162" viewBox="0 0 162 162" fill="none" xmlns="http://www.w3.org/2000/svg">
<g filter="url(#filter0_i_383_383)">
<rect width="162" height="162" rx="14" fill="url(#paint0_linear_383_383)"/>
</g>
<path d="M18.6411 86.3242L61.8141 77.8334L73.88 139.184L30.707 147.675L18.6411 86.3242Z" fill="url(#paint1_linear_383_383)"/>
<path d="M27.8815 37.3038L34.6983 35.9632L44.9767 88.2252L38.1599 89.5659L27.8815 37.3038Z" fill="url(#paint2_linear_383_383)"/>
<path d="M61.5907 76.6972C63.9353 88.6191 56.1715 100.184 44.2496 102.529C32.3277 104.874 20.7624 97.1099 18.4177 85.188C16.073 73.2662 23.8369 61.7008 35.7588 59.3561C47.6806 57.0115 59.246 64.7753 61.5907 76.6972Z" fill="url(#paint3_linear_383_383)"/>
<path d="M23.5073 36.979C23.5073 36.979 32.4002 34.4683 38.277 34.0743C44.3048 33.6701 48.8093 35.0468 48.8093 35.0468L49.217 39.2049C49.217 39.2049 44.7126 37.8282 38.6848 38.2324C32.8079 38.6264 23.9151 41.1371 23.9151 41.1371L23.5073 36.979Z" fill="url(#paint4_linear_383_383)"/>
<mask id="mask0_383_383" style="mask-type:alpha" maskUnits="userSpaceOnUse" x="0" y="0" width="162" height="162">
<rect width="162" height="162" rx="14" fill="url(#paint5_linear_383_383)"/>
</mask>
<g mask="url(#mask0_383_383)">
<g filter="url(#filter1_i_383_383)">
<ellipse cx="81.6563" cy="131.342" rx="117.056" ry="48.6427" transform="rotate(-38.8804 81.6563 131.342)" fill="url(#paint6_linear_383_383)"/>
</g>
<ellipse cx="81.6886" cy="131.507" rx="67.1879" ry="27.9199" transform="rotate(-38.8804 81.6886 131.507)" fill="url(#paint7_linear_383_383)"/>
</g>
<defs>
<filter id="filter0_i_383_383" x="-30" y="-25" width="192" height="187" filterUnits="userSpaceOnUse" color-interpolation-filters="sRGB">
<feFlood flood-opacity="0" result="BackgroundImageFix"/>
<feBlend mode="normal" in="SourceGraphic" in2="BackgroundImageFix" result="shape"/>
<feColorMatrix in="SourceAlpha" type="matrix" values="0 0 0 0 0 0 0 0 0 0 0 0 0 0 0 0 0 0 127 0" result="hardAlpha"/>
<feMorphology radius="18" operator="dilate" in="SourceAlpha" result="effect1_innerShadow_383_383"/>
<feOffset dx="-30" dy="-25"/>
<feGaussianBlur stdDeviation="36.35"/>
<feComposite in2="hardAlpha" operator="arithmetic" k2="-1" k3="1"/>
<feColorMatrix type="matrix" values="0 0 0 0 0.101961 0 0 0 0 0.554902 0 0 0 0 0.878431 0 0 0 1 0"/>
<feBlend mode="normal" in2="shape" result="effect1_innerShadow_383_383"/>
</filter>
<filter id="filter1_i_383_383" x="-14.4727" y="46.6655" width="192.258" height="167.353" filterUnits="userSpaceOnUse" color-interpolation-filters="sRGB">
<feFlood flood-opacity="0" result="BackgroundImageFix"/>
<feBlend mode="normal" in="SourceGraphic" in2="BackgroundImageFix" result="shape"/>
<feColorMatrix in="SourceAlpha" type="matrix" values="0 0 0 0 0 0 0 0 0 0 0 0 0 0 0 0 0 0 127 0" result="hardAlpha"/>
<feOffset dy="-2"/>
<feGaussianBlur stdDeviation="8.65"/>
<feComposite in2="hardAlpha" operator="arithmetic" k2="-1" k3="1"/>
<feColorMatrix type="matrix" values="0 0 0 0 1 0 0 0 0 1 0 0 0 0 1 0 0 0 0.11 0"/>
<feBlend mode="normal" in2="shape" result="effect1_innerShadow_383_383"/>
</filter>
<linearGradient id="paint0_linear_383_383" x1="5.5" y1="6.5" x2="191" y2="183.5" gradientUnits="userSpaceOnUse">
<stop stop-color="#3B77A1"/>
<stop offset="1" stop-color="#2C3033"/>
</linearGradient>
<linearGradient id="paint1_linear_383_383" x1="23.5" y1="37" x2="41" y2="159" gradientUnits="userSpaceOnUse">
<stop stop-color="#80CAFF"/>
<stop offset="1" stop-color="#497797"/>
</linearGradient>
<linearGradient id="paint2_linear_383_383" x1="23.5" y1="37" x2="41" y2="159" gradientUnits="userSpaceOnUse">
<stop stop-color="#80CAFF"/>
<stop offset="1" stop-color="#497797"/>
</linearGradient>
<linearGradient id="paint3_linear_383_383" x1="23.5" y1="37" x2="41" y2="159" gradientUnits="userSpaceOnUse">
<stop stop-color="#80CAFF"/>
<stop offset="1" stop-color="#497797"/>
</linearGradient>
<linearGradient id="paint4_linear_383_383" x1="23.5" y1="37" x2="41" y2="159" gradientUnits="userSpaceOnUse">
<stop stop-color="#80CAFF"/>
<stop offset="1" stop-color="#497797"/>
</linearGradient>
<linearGradient id="paint5_linear_383_383" x1="5.5" y1="6.5" x2="191" y2="183.5" gradientUnits="userSpaceOnUse">
<stop stop-color="#3BA17A"/>
<stop offset="1" stop-color="#2C3330"/>
</linearGradient>
<linearGradient id="paint6_linear_383_383" x1="99.1355" y1="49.6906" x2="11.09" y2="158.883" gradientUnits="userSpaceOnUse">
<stop stop-color="#7BC8FF"/>
<stop offset="1" stop-color="#2174AF"/>
</linearGradient>
<linearGradient id="paint7_linear_383_383" x1="90.0462" y1="87.8035" x2="21.73" y2="172.528" gradientUnits="userSpaceOnUse">
<stop stop-color="#7BC8FF"/>
<stop offset="1" stop-color="#2076B3"/>
</linearGradient>
</defs>
</svg>
