<svg width="133" height="14" viewBox="0 0 133 14" fill="none" xmlns="http://www.w3.org/2000/svg">
<path d="M3.07617 6.59766V5.31934H4.40234C5.53027 5.31934 6.30957 4.65625 6.30957 3.70605C6.30957 2.7627 5.60547 2.1748 4.4707 2.1748C3.31543 2.1748 2.57031 2.77637 2.48145 3.75391H1.03223C1.13477 1.99023 2.46777 0.896484 4.51855 0.896484C6.45996 0.896484 7.82031 1.99023 7.82031 3.54883C7.82031 4.64941 7.0752 5.56543 5.98145 5.8252V5.87988C7.30078 6.04395 8.12109 6.98047 8.12109 8.32031C8.12109 9.98145 6.55566 11.2393 4.49121 11.2393C2.34473 11.2393 0.868164 10.084 0.779297 8.34766H2.25586C2.34473 9.31836 3.21973 9.94043 4.48438 9.94043C5.71484 9.94043 6.54883 9.25 6.54883 8.24512C6.54883 7.21289 5.7627 6.59766 4.44336 6.59766H3.07617ZM13.6729 3.69238C15.498 3.69238 16.7012 5.12793 16.7012 7.4043C16.7012 9.68066 15.5049 11.123 13.7002 11.123C12.668 11.123 11.8477 10.6172 11.4375 9.81738H11.4033V13.3789H9.92676V3.80859H11.3555V5.0459H11.3828C11.8066 4.21875 12.6338 3.69238 13.6729 3.69238ZM13.2832 9.87207C14.4521 9.87207 15.1836 8.91504 15.1836 7.4043C15.1836 5.90039 14.4521 4.93652 13.2832 4.93652C12.1553 4.93652 11.3965 5.9209 11.3965 7.4043C11.3965 8.90137 12.1484 9.87207 13.2832 9.87207ZM21.4873 4.86816C20.4551 4.86816 19.7305 5.6543 19.6553 6.74121H23.251C23.2168 5.64062 22.5195 4.86816 21.4873 4.86816ZM23.2441 8.8877H24.6455C24.4404 10.2002 23.1963 11.1367 21.5488 11.1367C19.4365 11.1367 18.1582 9.70801 18.1582 7.43848C18.1582 5.18262 19.457 3.67871 21.4873 3.67871C23.4834 3.67871 24.7275 5.08691 24.7275 7.26758V7.77344H19.6484V7.8623C19.6484 9.11328 20.4004 9.94043 21.583 9.94043C22.4238 9.94043 23.0459 9.5166 23.2441 8.8877ZM31.2568 4.97754H27.9619V11H26.4922V3.80859H31.2568V4.97754ZM34.4502 11H32.9941V3.80859H34.4502V8.84668H34.5049L37.8271 3.80859H39.2832V11H37.8271V5.94824H37.7725L34.4502 11ZM47.5078 6.1123H46.0859C45.8945 5.44922 45.3477 4.90918 44.4316 4.90918C43.29 4.90918 42.5449 5.88672 42.5449 7.4043C42.5449 8.96289 43.2969 9.89941 44.4453 9.89941C45.3203 9.89941 45.8945 9.46191 46.0996 8.70996H47.5215C47.3096 10.1523 46.127 11.1367 44.4316 11.1367C42.374 11.1367 41.0479 9.70801 41.0479 7.4043C41.0479 5.14844 42.374 3.67871 44.418 3.67871C46.1953 3.67871 47.3027 4.78613 47.5078 6.1123ZM54.5293 3.80859V4.97754H52.2734V11H50.8037V4.97754H48.5479V3.80859H54.5293ZM59.8623 3.69238C61.6875 3.69238 62.8906 5.12793 62.8906 7.4043C62.8906 9.68066 61.6943 11.123 59.8896 11.123C58.8574 11.123 58.0371 10.6172 57.627 9.81738H57.5928V13.3789H56.1162V3.80859H57.5449V5.0459H57.5723C57.9961 4.21875 58.8232 3.69238 59.8623 3.69238ZM59.4727 9.87207C60.6416 9.87207 61.373 8.91504 61.373 7.4043C61.373 5.90039 60.6416 4.93652 59.4727 4.93652C58.3447 4.93652 57.5859 5.9209 57.5859 7.4043C57.5859 8.90137 58.3379 9.87207 59.4727 9.87207ZM66.1182 11H64.6621V3.80859H66.1182V8.84668H66.1729L69.4951 3.80859H70.9512V11H69.4951V5.94824H69.4404L66.1182 11ZM76.79 3.69238C78.6152 3.69238 79.8184 5.12793 79.8184 7.4043C79.8184 9.68066 78.6221 11.123 76.8174 11.123C75.7852 11.123 74.9648 10.6172 74.5547 9.81738H74.5205V13.3789H73.0439V3.80859H74.4727V5.0459H74.5C74.9238 4.21875 75.751 3.69238 76.79 3.69238ZM76.4004 9.87207C77.5693 9.87207 78.3008 8.91504 78.3008 7.4043C78.3008 5.90039 77.5693 4.93652 76.4004 4.93652C75.2725 4.93652 74.5137 5.9209 74.5137 7.4043C74.5137 8.90137 75.2656 9.87207 76.4004 9.87207ZM84.6865 11.1367C82.6289 11.1367 81.2754 9.72168 81.2754 7.4043C81.2754 5.09375 82.6357 3.67871 84.6865 3.67871C86.7373 3.67871 88.0977 5.09375 88.0977 7.4043C88.0977 9.72168 86.7441 11.1367 84.6865 11.1367ZM84.6865 9.91992C85.8486 9.91992 86.5938 9.00391 86.5938 7.4043C86.5938 5.81152 85.8418 4.89551 84.6865 4.89551C83.5312 4.89551 82.7793 5.81152 82.7793 7.4043C82.7793 9.00391 83.5312 9.91992 84.6865 9.91992ZM92.8359 4.88184H91.3252V6.76855H92.6924C93.5264 6.76855 93.9434 6.44727 93.9434 5.81152C93.9434 5.2168 93.5537 4.88184 92.8359 4.88184ZM92.7881 7.80078H91.3252V9.92676H92.9521C93.7861 9.92676 94.2373 9.55762 94.2373 8.86719C94.2373 8.15625 93.7588 7.80078 92.7881 7.80078ZM89.8691 11V3.80859H93.1367C94.5381 3.80859 95.3857 4.50586 95.3857 5.64062C95.3857 6.38574 94.8525 7.0625 94.1621 7.19238V7.24707C95.0918 7.37012 95.707 8.02637 95.707 8.92871C95.707 10.1934 94.7363 11 93.1777 11H89.8691ZM100.042 9.9541C101.074 9.9541 101.881 9.24316 101.881 8.30664V7.73926L100.11 7.84863C99.2285 7.91016 98.7295 8.2998 98.7295 8.91504C98.7295 9.54395 99.249 9.9541 100.042 9.9541ZM99.6318 11.123C98.2236 11.123 97.2393 10.248 97.2393 8.95605C97.2393 7.69824 98.2031 6.92578 99.9121 6.83008L101.881 6.71387V6.16016C101.881 5.36035 101.341 4.88184 100.438 4.88184C99.584 4.88184 99.0508 5.29199 98.9209 5.93457H97.5264C97.6084 4.63574 98.7158 3.67871 100.493 3.67871C102.236 3.67871 103.351 4.60156 103.351 6.04395V11H101.936V9.81738H101.901C101.484 10.6172 100.575 11.123 99.6318 11.123ZM110.762 3.80859V4.97754H108.506V11H107.036V4.97754H104.78V3.80859H110.762ZM115.056 7.18555H113.812V9.83789H115.056C115.903 9.83789 116.45 9.30469 116.45 8.51172C116.45 7.71191 115.896 7.18555 115.056 7.18555ZM112.342 11V3.80859H113.812V6.03027H115.186C116.847 6.03027 117.92 6.99414 117.92 8.51172C117.92 10.0361 116.847 11 115.186 11H112.342ZM125.789 6.1123H124.367C124.176 5.44922 123.629 4.90918 122.713 4.90918C121.571 4.90918 120.826 5.88672 120.826 7.4043C120.826 8.96289 121.578 9.89941 122.727 9.89941C123.602 9.89941 124.176 9.46191 124.381 8.70996H125.803C125.591 10.1523 124.408 11.1367 122.713 11.1367C120.655 11.1367 119.329 9.70801 119.329 7.4043C119.329 5.14844 120.655 3.67871 122.699 3.67871C124.477 3.67871 125.584 4.78613 125.789 6.1123ZM130.179 7.39746H131.484V4.9707H130.179C129.338 4.9707 128.798 5.44922 128.798 6.22852C128.798 6.91211 129.345 7.39746 130.179 7.39746ZM131.484 11V8.53223H130.391L128.647 11H126.979L128.941 8.2793C127.943 7.98535 127.328 7.24023 127.328 6.23535C127.328 4.73828 128.422 3.80859 130.104 3.80859H132.934V11H131.484Z" fill="white"/>
</svg>
